<svg xmlns="http://www.w3.org/2000/svg" version="1.1" xmlns:xlink="http://www.w3.org/1999/xlink" xmlns:svgjs="http://svgjs.dev/svgjs" width="1000" height="1211" viewBox="0 0 1000 1211"><g transform="matrix(1,0,0,1,0.25520429393395716,0.37033639143737673)"><svg xmlns="http://www.w3.org/2000/svg" version="1.1" xmlns:xlink="http://www.w3.org/1999/xlink" xmlns:svgjs="http://svgjs.com/svgjs" viewBox="0 0 270 327" data-background-color="#ffffff" preserveAspectRatio="xMidYMid meet" height="1211" width="1000"><defs></defs><g id="tight-bounds" transform="matrix(1,0,0,1,-0.06890515936217412,-0.10000000000002274)"><svg viewBox="0 0 270.13781031872435 327.2" height="327.2" width="270.13781031872435"><g><svg viewBox="0 0 395.52 479.06712446994976" height="327.2" width="270.13781031872435"><g transform="matrix(1,0,0,1,0,274.3253214316326)"><svg viewBox="0 0 395.52 204.7418030383172" height="204.7418030383172" width="395.52"><g><svg viewBox="0 0 395.52 204.7418030383172" height="204.7418030383172" width="395.52"><g><svg viewBox="0 0 395.52 204.7418030383172" height="204.7418030383172" width="395.52"><g transform="matrix(1,0,0,1,0,0)"><svg width="395.52" viewBox="-8.240340000000003 -31.947630000000004 74.59642 38.61501000000001" height="204.7418030383172" data-palette-color="#ffffff"><path d="M15.828 2.02l-1.357-31.996 3.447-1.346 1.328 36.517-3.773 1.472-23.713-27.779 3.53-1.378zM28.914 1.946c-0.735 0.085-1.395-0.108-1.979-0.577-0.578-0.477-0.912-1.103-1.001-1.878v0c-0.085-0.735 0.101-1.401 0.555-1.997 0.462-0.597 1.06-0.937 1.795-1.022v0c0.768-0.088 1.451 0.105 2.05 0.58 0.598 0.475 0.941 1.096 1.03 1.865v0c0.085 0.742-0.11 1.412-0.585 2.01-0.476 0.592-1.097 0.931-1.865 1.019zM43.869 1.155l18.956-25.812 3.531 1.106-21.806 29.321-3.864-1.211-1.125-36.507 3.617 1.134z" opacity="1" transform="matrix(1,0,0,1,0,0)" fill="#ffffff" class="undefined-text-0" data-fill-palette-color="primary" id="text-0"></path></svg></g></svg></g></svg></g></svg></g><g transform="matrix(1,0,0,1,75.54431999999998,0)"><svg viewBox="0 0 244.43136 208.14358883429173" height="208.14358883429173" width="244.43136"><g><svg xmlns="http://www.w3.org/2000/svg" xmlns:xlink="http://www.w3.org/1999/xlink" version="1.1" x="0" y="0" viewBox="32.3 46.49999999999998 191.3 162.90000000000003" style="enable-background:new 0 0 256 256;" xml:space="preserve" height="208.14358883429173" width="244.43136" class="icon-icon-0" data-fill-palette-color="accent" id="icon-0"><g fill="#ffffff" data-fill-palette-color="accent"><path d="M84.5 82.1c9 0 16.4-6.7 17.6-15.4h30.4l13 18.8c0.5 0.7 1.2 1 2 1h73.7c1.3 0 2.4-1.1 2.4-2.4 0-1.3-1.1-2.4-2.4-2.4h-72.5l-13-18.8c-0.5-0.7-1.2-1-2-1H102c-1.2-8.7-8.6-15.4-17.6-15.4-9.8 0-17.8 8-17.8 17.8S74.7 82.1 84.5 82.1zM84.5 51.4c7.1 0 12.9 5.8 12.9 12.9 0 0 0 0 0 0 0 0 0 0 0 0 0 7.1-5.8 12.9-12.9 12.9-7.1 0-12.9-5.8-12.9-12.9S77.3 51.4 84.5 51.4z" fill="#ffffff" data-fill-palette-color="accent"></path><path d="M221.2 109.5h-76.7c-1.2-8.7-8.6-15.4-17.6-15.4-9.8 0-17.8 8-17.8 17.8s8 17.8 17.8 17.8c9 0 16.4-6.7 17.6-15.4h76.7c1.3 0 2.4-1.1 2.4-2.4C223.6 110.6 222.5 109.5 221.2 109.5zM126.9 124.9c-7.1 0-12.9-5.8-12.9-12.9S119.8 99 126.9 99c7.1 0 12.9 5.8 12.9 12.9 0 0 0 0 0 0s0 0 0 0C139.8 119.1 134 124.9 126.9 124.9z" fill="#ffffff" data-fill-palette-color="accent"></path><path d="M221.2 140.3h-66.9c-0.8 0-1.6 0.4-2.1 1.1l-9.4 15h-41.2l-10.2-19c-0.4-0.8-1.2-1.3-2.1-1.3H67.7c-1.2-8.7-8.6-15.4-17.6-15.4-9.8 0-17.8 8-17.8 17.8s8 17.8 17.8 17.8c9 0 16.4-6.7 17.6-15.4h20.1l10.2 19c0.4 0.8 1.2 1.3 2.1 1.3h44c0.8 0 1.6-0.4 2.1-1.1l9.4-15h65.5c1.3 0 2.4-1.1 2.4-2.4C223.6 141.4 222.5 140.3 221.2 140.3zM50.1 151.6c-7.1 0-12.9-5.8-12.9-12.9s5.8-12.9 12.9-12.9c7.1 0 12.9 5.8 12.9 12.9 0 0 0 0 0 0s0 0 0 0C63.1 145.8 57.3 151.6 50.1 151.6z" fill="#ffffff" data-fill-palette-color="accent"></path><path d="M221.2 168.6h-38.6c-0.9 0-1.7 0.5-2.1 1.2l-11.4 19.4h-58.2c-1.2-8.7-8.6-15.4-17.6-15.4-9.8 0-17.8 8-17.8 17.8 0 9.8 8 17.8 17.8 17.8 9 0 16.4-6.7 17.6-15.4h59.6c0.9 0 1.7-0.5 2.1-1.2l11.4-19.4h37.2c1.3 0 2.4-1.1 2.4-2.4C223.6 169.7 222.5 168.6 221.2 168.6zM93.3 204.6c-7.1 0-12.9-5.8-12.9-12.9 0-7.1 5.8-12.9 12.9-12.9 7.1 0 12.9 5.8 12.9 12.9C106.3 198.8 100.5 204.6 93.3 204.6z" fill="#ffffff" data-fill-palette-color="accent"></path></g></svg></g></svg></g><g></g></svg></g></svg><rect width="270.13781031872435" height="327.2" fill="none" stroke="none" visibility="hidden"></rect></g></svg></g></svg>